<svg width="1170" height="134" viewBox="0 0 1170 134" fill="none" xmlns="http://www.w3.org/2000/svg">
<path fill-rule="evenodd" clip-rule="evenodd" d="M99.0333 54.307C105.102 69.233 99.3854 86.7254 85.0372 95.0094C70.6897 103.293 52.6833 99.4986 42.7913 86.7811C53.0067 92.135 66.9132 91.769 79.1026 84.7315C91.2929 77.6934 98.5633 65.8317 99.0333 54.307Z" fill="white"/>
<path d="M268.594 43.4882C281.396 56.2907 281.396 77.0476 268.594 89.8501C255.791 102.653 235.034 102.653 222.232 89.8501L268.594 43.4882Z" fill="white"/>
<path d="M438.238 38.3084C453.918 47.3611 459.29 67.4107 450.238 83.0905C441.185 98.7703 421.135 104.143 405.456 95.0899C404.124 94.3211 402.867 93.4731 401.686 92.5551C396.331 82.3394 396.697 68.4316 403.735 56.2413C410.772 44.052 422.633 36.7817 434.156 36.3107C434.268 36.3561 434.379 36.4021 434.491 36.4488C435.762 36.9819 437.013 37.6011 438.238 38.3084Z" fill="white"/>
<path d="M618.003 66.7797C618.003 48.6742 603.326 33.9969 585.221 33.9969C567.115 33.9969 552.438 48.6743 552.438 66.7797C552.438 84.8852 567.115 99.5626 585.221 99.5626C603.326 99.5626 618.003 84.8852 618.003 66.7797Z" fill="white"/>
<path d="M764.047 94.4399C748.367 103.493 728.318 98.1204 719.265 82.4406C710.212 66.7608 715.585 46.7111 731.264 37.6584C732.596 36.8896 733.959 36.2249 735.344 35.6616C746.869 36.1316 758.731 43.402 765.769 55.5923C772.806 67.7817 773.172 81.6882 767.818 91.9036C767.723 91.9776 767.628 92.0511 767.531 92.1241C766.434 92.9583 765.272 93.7327 764.047 94.4399Z" fill="white"/>
<path d="M947.341 89.5429C934.539 102.345 913.782 102.345 900.979 89.543C888.177 76.7405 888.177 55.9835 900.979 43.181L947.341 89.5429Z" fill="white"/>
<path fill-rule="evenodd" clip-rule="evenodd" d="M1126.71 86.5622C1116.82 99.2812 1098.81 103.076 1084.46 94.7924C1070.12 86.5088 1064.4 69.0177 1070.47 54.0922C1070.94 65.616 1078.21 77.4764 1090.4 84.5139C1102.59 91.552 1116.5 91.9175 1126.71 86.5622Z" fill="white"/>
<path d="M0 113.031H1169.5" stroke="white" stroke-width="10"/>
</svg>
